<svg xmlns="http://www.w3.org/2000/svg" width="120" height="90" viewBox="0 0 120 90"><rect width="100%" height="100%" fill="#DDDDDD"/><path fill="#999999" d="M30.87 40.02h1.66v10.12h-.96q-.23 0-.38-.07-.15-.08-.29-.25l-5.28-6.75q.04.46.04.85v6.22H24V40.02h.99q.12 0 .2.01.09.01.16.04.06.03.13.09.06.06.14.16l5.3 6.78q-.02-.25-.03-.49-.02-.24-.02-.44zm6.82 2.83q.8 0 1.45.25.66.26 1.12.74.47.48.72 1.16.25.69.25 1.54t-.25 1.54q-.25.68-.72 1.16-.46.49-1.12.75-.65.25-1.45.25t-1.46-.25q-.66-.26-1.12-.75-.47-.48-.73-1.16-.25-.69-.25-1.54t.25-1.54q.26-.68.73-1.16.46-.48 1.12-.74.66-.25 1.46-.25m0 6.06q.9 0 1.33-.6t.43-1.76-.43-1.77-1.33-.61q-.91 0-1.35.61-.43.61-.43 1.77 0 1.15.43 1.76.44.6 1.35.6m10.42-3.8h1.41q.52 0 .9-.13.39-.13.65-.37.25-.25.38-.59.12-.35.12-.78 0-.4-.12-.73-.13-.33-.38-.56t-.64-.35q-.38-.13-.91-.13h-1.41zm-1.88-5.09h3.29q1.02 0 1.76.24.74.23 1.22.66.49.43.72 1.02.24.6.24 1.3 0 .74-.25 1.35-.24.61-.73 1.06-.49.44-1.23.68-.74.25-1.73.25h-1.41v3.56h-1.88zm9.92 3.37.11.81q.33-.64.79-1.01.47-.37 1.1-.37.49 0 .79.22l-.11 1.3q-.03.12-.1.18-.07.05-.18.05-.1 0-.31-.04-.21-.03-.4-.03-.29 0-.51.08-.23.09-.41.24-.17.16-.31.38-.14.23-.26.52v4.42h-1.73v-7.18h1.02q.27 0 .37.09.11.1.14.34m5.06 2.33h3.26q0-.33-.09-.63-.1-.3-.28-.52-.19-.23-.48-.36-.29-.12-.68-.12-.75 0-1.18.42-.43.43-.55 1.21m4.41 1.05h-4.44q.04.55.19.95.16.4.41.67.25.26.6.39.34.13.76.13t.73-.1q.3-.1.53-.22l.4-.21q.17-.1.33-.1.22 0 .32.16l.5.63q-.29.34-.64.56-.36.23-.75.37-.39.13-.79.19-.4.05-.78.05-.75 0-1.39-.24-.65-.25-1.12-.74-.48-.48-.75-1.2-.28-.72-.28-1.67 0-.73.24-1.38t.69-1.12q.44-.48 1.08-.76t1.45-.28q.67 0 1.25.21.57.22.99.64.41.41.64 1.02.24.6.24 1.38 0 .39-.09.53-.08.14-.32.14m6.81-3.81h1.37l-2.85 7.18h-1.57l-2.85-7.18h1.43q.2 0 .33.09.12.09.17.23l1.38 3.84q.11.33.2.65.08.33.15.65.07-.32.15-.65.08-.32.2-.65l1.42-3.84q.05-.14.17-.23.13-.09.3-.09m2.34 0h1.74v7.18h-1.74zm1.97-2.1q0 .23-.09.42-.09.2-.24.35-.15.14-.35.23t-.44.09q-.22 0-.42-.09t-.35-.23q-.14-.15-.23-.35-.09-.19-.09-.42t.09-.43.23-.35q.15-.15.35-.23.2-.09.42-.09.24 0 .44.09.2.08.35.23t.24.35.09.43m2.9 4.86h3.26q0-.33-.1-.63-.09-.3-.28-.52-.19-.23-.48-.36-.29-.12-.68-.12-.74 0-1.17.42-.44.43-.55 1.21m4.41 1.05H79.6q.04.55.2.95.15.4.4.67.25.26.6.39t.77.13.72-.1q.31-.1.53-.22l.4-.21q.17-.1.34-.1.21 0 .32.16l.49.63q-.28.34-.64.56-.36.23-.74.37-.39.13-.8.19-.4.05-.78.05-.75 0-1.39-.24-.64-.25-1.12-.74-.48-.48-.75-1.2t-.27-1.67q0-.73.24-1.38.23-.65.68-1.12.44-.48 1.08-.76t1.45-.28q.68 0 1.25.21.58.22.99.64.41.41.65 1.02.23.6.23 1.38 0 .39-.08.53-.09.14-.32.14m10.64-3.81H96l-2.28 7.18h-1.39q-.23 0-.33-.31l-1.28-4.15q-.07-.21-.12-.42-.05-.2-.09-.41-.04.21-.09.42t-.12.42l-1.31 4.14q-.08.31-.37.31h-1.33l-2.27-7.18h1.38q.19 0 .32.09t.17.23l1.03 3.84q.08.31.14.61t.1.6q.08-.3.17-.6.08-.3.18-.61l1.19-3.85q.04-.14.17-.24.12-.09.29-.09h.77q.18 0 .31.09.13.1.17.24l1.15 3.85q.1.31.18.62.08.3.15.6.09-.59.26-1.22l1.06-3.84q.05-.14.17-.23.13-.09.31-.09"/></svg>